# xmcd
#
# Track frame offsets:
#	150
#	17272
#	39598
#	75407
#	91643
#	108669
#	130025
#	147057
#	166448
#	183104
#	201311
#	218106
#	234480
#	250716
#	270044
#	287109
#	306029
#	322399
#
# Disc length: 4548
#
# Revision: 1
# Processed by: cddbd v1.5.1PL0 Copyright (c) Steve Scherf et al.
# Submitted via: CDex 1.50
# Normalized: r0:DSETVAR2
#
DISCID=e911c212
DTITLE=Various Artist - Paulina Rubio
DYEAR=1900
DGENRE=Salsa
TTITLE0=Paulina Rubio - Baila Casanova
TTITLE1=Paulina Rubio - Don't Say Goodbye
TTITLE2=paulina rubio - Don't Say Goodbye (Extended Mix)
TTITLE3=Paulina Rubio - Enamorada
TTITLE4=PAULINA RUBIO - Mio
TTITLE5=Paulina Rubio - Lo haré por ti
TTITLE6=Paulina Rubio - Ese hombre es mio
TTITLE7=Paulina Rubio - Si Tu Te Vas (Remix)
TTITLE8=Paulina Rubio - Paulina Rubio- Don't say goodb
TTITLE9=Paulina rubio - sexual lover mp3seros.spydar.c
TTITLE10=Paulina Rubio - Si tu Te vas
TTITLE11=Paulina Rubio - Todo Mi Amor
TTITLE12=Paulina Rubio - Undeniable
TTITLE13=PAULINA RUBIO - Y YO SIGO AQUI
TTITLE14=PAULINA RUBIO - YO NO SOY ESA MUJER
TTITLE15=Paulina Rubio - Yo No Soy Esa Mujer (Mix)
TTITLE16=artist - Track 14
TTITLE17=paulina vs thalia sexi dance - regresa a mi - mix dj power
EXTD=
EXTT0=
EXTT1=
EXTT2=
EXTT3=
EXTT4=
EXTT5=
EXTT6=
EXTT7=
EXTT8=
EXTT9=
EXTT10=
EXTT11=
EXTT12=
EXTT13=
EXTT14=
EXTT15=
EXTT16=
EXTT17=
PLAYORDER=
